<svg width="32" height="40" viewBox="0 0 32 40" fill="none" xmlns="http://www.w3.org/2000/svg">
<path d="M27.4266 5.24075H23.8078V3.62185C23.8078 3.09807 23.2364 2.86002 22.7127 2.86002H19.9034C19.2368 0.955395 17.5702 0.00308303 15.6656 0.00308303C13.782 -0.067732 12.0686 1.08727 11.4278 2.86002H8.66614C8.14236 2.86002 7.61859 3.09807 7.61859 3.62185V5.24075H3.99973C1.85523 5.26363 0.1008 6.95535 0 9.09758V36.3812C0 38.4763 1.90462 40 3.99973 40H27.4266C29.5217 40 31.4263 38.4763 31.4263 36.3812V9.09767C31.3255 6.95535 29.5711 5.26363 27.4266 5.24075ZM9.52312 4.76464H12.142C12.5992 4.70887 12.9664 4.36108 13.0467 3.90757C13.3287 2.67956 14.4061 1.79807 15.6656 1.76489C16.9135 1.80271 17.9746 2.68695 18.2368 3.90757C18.3222 4.37675 18.7137 4.72901 19.1891 4.76464H21.9033V8.57389H9.52312V4.76464ZM29.5217 36.3813C29.5217 37.4289 28.4741 38.0955 27.4266 38.0955H3.99973C2.95218 38.0955 1.90462 37.4289 1.90462 36.3813V9.09767C2.00178 8.00728 2.90515 7.16543 3.99973 7.14547H7.61849V9.57387C7.6688 10.1074 8.13088 10.5065 8.66605 10.4786H22.7126C23.2576 10.5084 23.7342 10.1148 23.8077 9.57387V7.14538H27.4265C28.521 7.16543 29.4244 8.00719 29.5216 9.09758V36.3813H29.5217Z" fill="#222222"/>
<path d="M12.0468 21.2872C11.6896 20.9107 11.0966 20.8895 10.7135 21.2396L7.66607 24.1441L6.38046 22.8109C6.02329 22.4344 5.43034 22.4132 5.04719 22.7633C4.67835 23.1497 4.67835 23.7577 5.04719 24.1441L6.99939 26.144C7.16836 26.3332 7.41243 26.4378 7.66598 26.4297C7.91716 26.4262 8.15676 26.3234 8.33257 26.144L12.0466 22.6205C12.4148 22.2827 12.4394 21.7103 12.1015 21.3422C12.0842 21.323 12.0659 21.3047 12.0468 21.2872Z" fill="#222222"/>
<path d="M25.7124 23.3347H14.7609C14.2349 23.3347 13.8086 23.761 13.8086 24.287C13.8086 24.8129 14.2349 25.2393 14.7609 25.2393H25.7124C26.2384 25.2393 26.6647 24.8129 26.6647 24.287C26.6647 23.761 26.2384 23.3347 25.7124 23.3347Z" fill="#222222"/>
<path d="M12.0468 13.6688C11.6896 13.2923 11.0966 13.271 10.7135 13.6212L7.66607 16.5257L6.38046 15.1924C6.02329 14.8159 5.43034 14.7947 5.04719 15.1449C4.67835 15.5313 4.67835 16.1393 5.04719 16.5257L6.99939 18.5256C7.16836 18.7148 7.41243 18.8194 7.66598 18.8113C7.91716 18.8077 8.15676 18.705 8.33257 18.5256L12.0466 15.0021C12.4148 14.6643 12.4394 14.0919 12.1015 13.7238C12.0842 13.7046 12.0659 13.6863 12.0468 13.6688Z" fill="#222222"/>
<path d="M25.7124 15.7161H14.7609C14.2349 15.7161 13.8086 16.1425 13.8086 16.6684C13.8086 17.1944 14.2349 17.6207 14.7609 17.6207H25.7124C26.2384 17.6207 26.6647 17.1944 26.6647 16.6684C26.6647 16.1425 26.2384 15.7161 25.7124 15.7161Z" fill="#222222"/>
<path d="M12.0468 28.9057C11.6896 28.5292 11.0966 28.508 10.7135 28.8581L7.66607 31.7626L6.38046 30.4293C6.02329 30.0528 5.43034 30.0317 5.04719 30.3818C4.67835 30.7682 4.67835 31.3762 5.04719 31.7626L6.99939 33.7625C7.16836 33.9517 7.41243 34.0563 7.66598 34.0482C7.91716 34.0446 8.15676 33.9419 8.33257 33.7625L12.0466 30.239C12.4148 29.9012 12.4394 29.3288 12.1015 28.9607C12.0842 28.9416 12.0659 28.9233 12.0468 28.9057Z" fill="#222222"/>
<path d="M25.7124 30.9532H14.7609C14.2349 30.9532 13.8086 31.3795 13.8086 31.9055C13.8086 32.4315 14.2349 32.8578 14.7609 32.8578H25.7124C26.2384 32.8578 26.6647 32.4315 26.6647 31.9055C26.6647 31.3795 26.2384 30.9532 25.7124 30.9532Z" fill="#222222"/>
</svg>
