<svg width="40" height="40" viewBox="0 0 40 40" fill="none" xmlns="http://www.w3.org/2000/svg">
<g clip-path="url(#clip0_3_54)">
<path d="M36.4844 0H3.51562C1.57715 0 0 1.57715 0 3.51562V36.4844C0 38.4229 1.57715 40 3.51562 40H36.4844C38.4229 40 40 38.4229 40 36.4844V3.51562C40 1.57715 38.4229 0 36.4844 0ZM37.6562 36.4844C37.6562 37.1304 37.1304 37.6562 36.4844 37.6562H3.51562C2.86957 37.6562 2.34375 37.1304 2.34375 36.4844V3.51562C2.34375 2.86957 2.86957 2.34375 3.51562 2.34375H36.4844C37.1304 2.34375 37.6562 2.86957 37.6562 3.51562V36.4844Z" fill="#222222"/>
<path d="M33.5156 9.34784C29.5868 6.40137 24.913 4.84375 20 4.84375C15.087 4.84375 10.4132 6.40137 6.48437 9.34784C6.23565 9.53461 6.07116 9.81232 6.02722 10.1202C5.98358 10.4282 6.06384 10.741 6.25061 10.9897L12.4368 19.2197C12.6672 19.5261 13.0188 19.6875 13.3746 19.6875C13.6191 19.6875 13.866 19.6112 14.0768 19.4531C15.7986 18.1619 17.8467 17.4792 20 17.4792C22.153 17.4792 24.2014 18.1619 25.9232 19.4531C26.4404 19.8413 27.1744 19.7366 27.5629 19.2197L33.7491 10.9897C33.9362 10.741 34.0164 10.4282 33.9725 10.1202C33.9288 9.81262 33.7643 9.53461 33.5156 9.34784ZM26.3599 16.9196C24.779 15.9521 23.0176 15.3662 21.1719 15.1917V11.6199C21.1719 10.9726 20.6473 10.448 20 10.448C19.3527 10.448 18.8281 10.9726 18.8281 11.6199V15.1917C16.9824 15.3662 15.2209 15.9521 13.6401 16.9196L8.84918 10.5457C12.16 8.34503 15.9912 7.1875 20 7.1875C24.0088 7.1875 27.84 8.34503 31.1508 10.5457L26.3599 16.9196Z" fill="#222222"/>
</g>
<defs>
<clipPath id="clip0_3_54">
<rect width="40" height="40" fill="white"/>
</clipPath>
</defs>
</svg>
