<svg width="40" height="40" viewBox="0 0 40 40" fill="none" xmlns="http://www.w3.org/2000/svg">
<g clip-path="url(#clip0_3_57)">
<path d="M7.33979 2.68591C6.23578 2.68591 5.34082 3.58087 5.34082 4.68488C5.34082 5.7889 6.23578 6.68386 7.33979 6.68386C8.44381 6.68386 9.33876 5.7889 9.33876 4.68488C9.33876 3.58087 8.44381 2.68591 7.33979 2.68591ZM7.33979 5.35121C6.97181 5.35121 6.67347 5.05286 6.67347 4.68488C6.67347 4.31691 6.97181 4.01856 7.33979 4.01856C7.70777 4.01856 8.00612 4.31691 8.00612 4.68488C8.00612 5.05286 7.70785 5.35121 7.33979 5.35121Z" fill="#222222"/>
<path d="M32.6601 2.68591C31.5561 2.68591 30.6611 3.58087 30.6611 4.68488C30.6611 5.7889 31.5561 6.68386 32.6601 6.68386C33.7641 6.68386 34.6591 5.7889 34.6591 4.68488C34.6591 3.58087 33.7641 2.68591 32.6601 2.68591ZM32.6601 5.35121C32.2921 5.35121 31.9938 5.05286 31.9938 4.68488C31.9938 4.31691 32.2921 4.01856 32.6601 4.01856C33.0281 4.01856 33.3264 4.31691 33.3264 4.68488C33.3264 5.05286 33.0282 5.35121 32.6601 5.35121Z" fill="#222222"/>
<path d="M39.9584 17.8114L36.5768 7.18218C37.0615 6.43914 37.3211 5.57192 37.3244 4.6848C37.3357 2.10879 35.2567 0.0113736 32.6807 4.60693e-05C30.1047 -0.0112814 28.0073 2.06773 27.9959 4.64374C27.9873 6.59315 29.192 8.34225 31.0163 9.02931L32.2237 15.6712C31.7306 15.4568 31.1988 15.3462 30.6611 15.3461C29.234 15.3473 27.9158 16.1091 27.2023 17.345H23.5142C24.6676 16.3365 25.3297 14.8793 25.3305 13.3471V10.6818C25.3305 7.73781 22.9439 5.3512 20 5.3512C17.056 5.3512 14.6694 7.73781 14.6694 10.6818V13.3471C14.6702 14.8793 15.3323 16.3365 16.4858 17.345H12.7977C12.0841 16.1091 10.7659 15.3473 9.33878 15.3461C8.80114 15.3462 8.26933 15.4568 7.77625 15.6712L8.98363 9.02931C11.3874 8.1167 12.5963 5.42817 11.6836 3.0244C10.7709 0.620643 8.08251 -0.588317 5.67867 0.324296C3.8681 1.01169 2.67222 2.74813 2.67555 4.6848C2.6788 5.57192 2.93841 6.43914 3.42316 7.18218L0.0415711 17.8114C0.0209984 17.876 0.0104205 17.9435 0.0102539 18.0113V24.6745C0.0102539 25.0425 0.3086 25.3408 0.676577 25.3408H9.44939L12.0147 39.4529C12.0724 39.7697 12.3484 40 12.6704 39.9999H27.3295C27.6515 40 27.9275 39.7697 27.9852 39.4529L30.5505 25.3408H39.3233C39.6913 25.3408 39.9897 25.0425 39.9897 24.6745V18.0113C39.9895 17.9434 39.9789 17.876 39.9584 17.8114ZM31.7786 7.89448C30.3336 7.49635 29.3315 6.18353 29.3285 4.6848C29.3285 2.84483 30.8201 1.35318 32.6601 1.35318C34.5001 1.35318 35.9917 2.84483 35.9917 4.6848C36.0125 6.50444 34.5543 7.99642 32.7347 8.01725C32.5762 8.01908 32.4176 8.00942 32.2604 7.98843C32.0977 7.96861 31.9367 7.9372 31.7786 7.89448ZM16.002 13.347V10.6817C16.002 8.47368 17.7919 6.68377 20 6.68377C22.208 6.68377 23.9979 8.47368 23.9979 10.6817V13.347C23.9979 15.555 22.208 17.3449 20 17.3449C17.792 17.3449 16.002 15.5549 16.002 13.347ZM7.33981 1.35318C9.17978 1.36059 10.6653 2.85824 10.6579 4.69821C10.6519 6.18927 9.65587 7.49477 8.21936 7.89448C6.44178 8.37806 4.60872 7.32902 4.12513 5.55135C4.04826 5.26891 4.00894 4.97748 4.0082 4.6848C4.01044 2.84566 5.50076 1.35535 7.33981 1.35318ZM19.3336 38.6673H17.3347C16.7827 38.6673 16.3352 38.2198 16.3352 37.6678C16.3352 37.1158 16.7827 36.6683 17.3347 36.6683H19.3336V38.6673ZM19.3336 35.3357H16.3352C15.7832 35.3357 15.3357 34.8881 15.3357 34.3362C15.3357 33.7842 15.7832 33.3367 16.3352 33.3367H19.3336V35.3357ZM19.3336 32.0041H16.3352C15.7832 32.0041 15.3357 31.5565 15.3357 31.0046C15.3357 30.4526 15.7832 30.0051 16.3352 30.0051H19.3336V32.0041ZM22.6653 38.6673H20.6663V36.6683H22.6653C23.2172 36.6683 23.6647 37.1158 23.6647 37.6678C23.6647 38.2198 23.2173 38.6673 22.6653 38.6673ZM23.6647 35.3357H20.6663V33.3367H23.6647C24.2167 33.3367 24.6642 33.7842 24.6642 34.3362C24.6642 34.8881 24.2168 35.3357 23.6647 35.3357ZM20.6663 32.0041V30.0051H23.6647C24.2167 30.0051 24.6642 30.4526 24.6642 31.0046C24.6642 31.5565 24.2167 32.0041 23.6647 32.0041H20.6663ZM38.657 24.0082H29.9948C29.6728 24.0081 29.3968 24.2384 29.3392 24.5552L26.7738 38.6673H24.7635C25.1145 37.9568 25.0687 37.1147 24.6429 36.4464C25.8082 35.9126 26.32 34.5352 25.7862 33.3699C25.6663 33.1081 25.4986 32.8709 25.2919 32.6704C26.0294 31.9629 26.2092 30.8524 25.7323 29.9484C26.6835 29.7786 27.4983 29.1688 27.9292 28.304L26.7365 27.7083C26.4426 28.3021 25.8359 28.6764 25.1733 28.6724H20.6663V22.5556L26.7965 21.3296L26.5299 20.0236L19.9913 21.3309L12.7897 20.0209L12.5511 21.3322L19.3336 22.5656V28.6724H14.8266C14.1665 28.6739 13.5629 28.3 13.2701 27.7083L12.0774 28.304C12.5074 29.1676 13.3201 29.7773 14.2696 29.9484C13.7922 30.852 13.9711 31.9624 14.708 32.6704C13.7878 33.5627 13.7653 35.0319 14.6575 35.9521C14.8579 36.1588 15.0952 36.3265 15.357 36.4464C14.9312 37.1147 14.8854 37.9568 15.2364 38.6673H13.2261L10.6608 24.5552C10.6031 24.2384 10.3271 24.0081 10.0051 24.0082H1.3429V18.1145L4.4513 8.34558C4.56324 8.43486 4.67852 8.51749 4.79779 8.59545L4.81978 8.60878C4.95138 8.69365 5.08731 8.77178 5.2269 8.84266C5.25888 8.85931 5.29353 8.87397 5.32418 8.88996C5.44812 8.94927 5.57472 9.00391 5.70332 9.05255C5.73064 9.06254 5.75729 9.0732 5.78461 9.08253C6.1092 9.19822 6.44586 9.27668 6.7881 9.31641H6.81275C6.96617 9.33282 7.12026 9.34148 7.27451 9.3424C7.2965 9.3424 7.31782 9.3464 7.34115 9.3464C7.36447 9.3464 7.38779 9.34173 7.41111 9.34173C7.46575 9.34173 7.51905 9.34173 7.57369 9.34173L6.16908 17.0611C6.10378 17.4232 6.34441 17.7698 6.70664 17.8351C6.93852 17.8769 7.17523 17.7931 7.32915 17.6148C8.27392 16.5 9.94364 16.3621 11.0584 17.307C11.3707 17.5716 11.6173 17.9051 11.7789 18.2811C11.8848 18.5238 12.1243 18.6808 12.3892 18.6809H27.6107C27.8755 18.6808 28.1151 18.5238 28.2211 18.2811C28.7978 16.9385 30.3539 16.3176 31.6966 16.8943C32.0727 17.0559 32.4062 17.3025 32.6708 17.6148C32.9113 17.8933 33.332 17.9241 33.6105 17.6836C33.7889 17.5296 33.8726 17.2929 33.8308 17.0611L32.4276 9.34306C32.4842 9.3464 32.5402 9.34306 32.5968 9.34306C32.6175 9.34306 32.6388 9.34773 32.6601 9.34773C32.6814 9.34773 32.6968 9.34773 32.7147 9.3444C33.2329 9.3434 33.7471 9.25319 34.2346 9.07787L34.2699 9.06521C34.4139 9.01123 34.5551 8.95127 34.6931 8.8833L34.7644 8.84932C34.9109 8.77494 35.0535 8.69282 35.1915 8.60345L35.2008 8.59811C35.3198 8.51991 35.4358 8.4362 35.5486 8.34691L38.657 18.1145V24.0082Z" fill="#222222"/>
<path d="M8.8297 20.6765C8.16954 20.6779 7.56593 20.304 7.27316 19.7123L6.08044 20.308C6.59826 21.3522 7.66413 22.0117 8.8297 22.0091H10.6714V20.6765H8.8297Z" fill="#222222"/>
<path d="M32.7334 19.7124C32.4396 20.3063 31.8328 20.6806 31.1702 20.6766H29.3285V22.0092H31.1702C32.3382 22.0144 33.4072 21.3545 33.9261 20.3081L32.7334 19.7124Z" fill="#222222"/>
</g>
<defs>
<clipPath id="clip0_3_57">
<rect width="40" height="40" fill="white"/>
</clipPath>
</defs>
</svg>
